<mxfile host="app.diagrams.net" modified="2021-05-17T14:33:03.616Z" agent="5.0 (Macintosh; Intel Mac OS X 10_15_7) AppleWebKit/537.36 (KHTML, like Gecko) Chrome/90.0.4430.93 Safari/537.36" etag="14IRHIl4COOv5y9ygzGl" version="14.6.13" type="github">
  <diagram id="prtHgNgQTEPvFCAcTncT" name="Page-1">
    <mxGraphModel dx="1391" dy="891" grid="1" gridSize="10" guides="1" tooltips="1" connect="1" arrows="1" fold="1" page="1" pageScale="1" pageWidth="827" pageHeight="1169" math="0" shadow="0">
      <root>
        <mxCell id="0" />
        <mxCell id="1" parent="0" />
        <mxCell id="1MiQObDdTnF4QDf4GdPB-1" value="Biro Hany (Pierre)" style="ellipse;whiteSpace=wrap;html=1;" vertex="1" parent="1">
          <mxGeometry x="562.5" y="400" width="75" height="50" as="geometry" />
        </mxCell>
        <mxCell id="1MiQObDdTnF4QDf4GdPB-12" value="Lives Here" style="edgeStyle=orthogonalEdgeStyle;rounded=0;orthogonalLoop=1;jettySize=auto;html=1;" edge="1" parent="1" source="1MiQObDdTnF4QDf4GdPB-2" target="1MiQObDdTnF4QDf4GdPB-4">
          <mxGeometry relative="1" as="geometry" />
        </mxCell>
        <mxCell id="1MiQObDdTnF4QDf4GdPB-2" value="26 Nassau" style="rounded=1;whiteSpace=wrap;html=1;" vertex="1" parent="1">
          <mxGeometry x="180" y="200" width="120" height="60" as="geometry" />
        </mxCell>
        <mxCell id="1MiQObDdTnF4QDf4GdPB-11" value="" style="edgeStyle=orthogonalEdgeStyle;rounded=0;orthogonalLoop=1;jettySize=auto;html=1;" edge="1" parent="1" source="1MiQObDdTnF4QDf4GdPB-3" target="1MiQObDdTnF4QDf4GdPB-7">
          <mxGeometry relative="1" as="geometry" />
        </mxCell>
        <mxCell id="1MiQObDdTnF4QDf4GdPB-15" value="Lives Here" style="edgeLabel;html=1;align=center;verticalAlign=middle;resizable=0;points=[];" vertex="1" connectable="0" parent="1MiQObDdTnF4QDf4GdPB-11">
          <mxGeometry x="-0.0333" y="-1" relative="1" as="geometry">
            <mxPoint as="offset" />
          </mxGeometry>
        </mxCell>
        <mxCell id="1MiQObDdTnF4QDf4GdPB-13" style="edgeStyle=orthogonalEdgeStyle;rounded=0;orthogonalLoop=1;jettySize=auto;html=1;entryX=1;entryY=0.5;entryDx=0;entryDy=0;" edge="1" parent="1" source="1MiQObDdTnF4QDf4GdPB-3" target="1MiQObDdTnF4QDf4GdPB-4">
          <mxGeometry relative="1" as="geometry" />
        </mxCell>
        <mxCell id="1MiQObDdTnF4QDf4GdPB-14" value="Stores Junk Here" style="edgeLabel;html=1;align=center;verticalAlign=middle;resizable=0;points=[];" vertex="1" connectable="0" parent="1MiQObDdTnF4QDf4GdPB-13">
          <mxGeometry x="0.182" y="-1" relative="1" as="geometry">
            <mxPoint as="offset" />
          </mxGeometry>
        </mxCell>
        <mxCell id="1MiQObDdTnF4QDf4GdPB-3" value="80 Claremont" style="rounded=1;whiteSpace=wrap;html=1;" vertex="1" parent="1">
          <mxGeometry x="540" y="200" width="120" height="60" as="geometry" />
        </mxCell>
        <mxCell id="1MiQObDdTnF4QDf4GdPB-6" value="" style="edgeStyle=orthogonalEdgeStyle;rounded=0;orthogonalLoop=1;jettySize=auto;html=1;" edge="1" parent="1" source="1MiQObDdTnF4QDf4GdPB-4" target="1MiQObDdTnF4QDf4GdPB-5">
          <mxGeometry relative="1" as="geometry" />
        </mxCell>
        <mxCell id="1MiQObDdTnF4QDf4GdPB-4" value="{troll} Salib" style="ellipse;whiteSpace=wrap;html=1;" vertex="1" parent="1">
          <mxGeometry x="202.5" y="310" width="75" height="50" as="geometry" />
        </mxCell>
        <mxCell id="1MiQObDdTnF4QDf4GdPB-5" value="Marian Salib" style="ellipse;whiteSpace=wrap;html=1;" vertex="1" parent="1">
          <mxGeometry x="202.5" y="390" width="75" height="50" as="geometry" />
        </mxCell>
        <mxCell id="1MiQObDdTnF4QDf4GdPB-8" value="" style="edgeStyle=orthogonalEdgeStyle;rounded=0;orthogonalLoop=1;jettySize=auto;html=1;" edge="1" parent="1" source="1MiQObDdTnF4QDf4GdPB-7" target="1MiQObDdTnF4QDf4GdPB-1">
          <mxGeometry relative="1" as="geometry" />
        </mxCell>
        <mxCell id="1MiQObDdTnF4QDf4GdPB-7" value="{slave} Hany?" style="ellipse;whiteSpace=wrap;html=1;" vertex="1" parent="1">
          <mxGeometry x="562.5" y="320" width="75" height="50" as="geometry" />
        </mxCell>
        <mxCell id="1MiQObDdTnF4QDf4GdPB-10" value="Construction Limo Driver" style="ellipse;whiteSpace=wrap;html=1;" vertex="1" parent="1">
          <mxGeometry x="160" y="600" width="75" height="50" as="geometry" />
        </mxCell>
        <mxCell id="1MiQObDdTnF4QDf4GdPB-16" value="MORA CONSTRUCTION LLC." style="rounded=0;whiteSpace=wrap;html=1;" vertex="1" parent="1">
          <mxGeometry x="171.25" y="140" width="137.5" height="40" as="geometry" />
        </mxCell>
        <mxCell id="1MiQObDdTnF4QDf4GdPB-17" value="GADELKARIM, HANY GAMAL HABIB" style="rounded=0;whiteSpace=wrap;html=1;" vertex="1" parent="1">
          <mxGeometry x="531.25" y="140" width="137.5" height="40" as="geometry" />
        </mxCell>
      </root>
    </mxGraphModel>
  </diagram>
</mxfile>
